General
Complete name                    : Monsters,Inc.[2001]BRrip.720p.x264[HinDi]-[SnowDoN-HDDR].mkv
Format                           : Matroska
File size                        : 534 MiB
Duration                         : 1h 28mn
Overall bit rate                 : 844 Kbps
Movie name                       : Monsters,Inc.[2001]BRrip.720p.x264[HinDi]-[SnowDoN-HDDR]
Encoded date                     : UTC 2011-01-02 22:31:54
Writing application              : mkvmerge v4.4.0 ('Die Wiederkehr') built on Oct 31 2010 21:52:48
Writing library                  : libebml v1.0.0 + libmatroska v1.0.0

Video
ID                               : 1
Format                           : AVC
Format/Info                      : Advanced Video Codec
Format profile                   : High@L3.1
Format settings, CABAC           : Yes
Format settings, ReFrames        : 5 frames
Muxing mode                      : Container profile=Unknown@3.1
Codec ID                         : V_MPEG4/ISO/AVC
Duration                         : 1h 28mn
Bit rate                         : 667 Kbps
Nominal bit rate                 : 658 Kbps
Width                            : 1 280 pixels
Height                           : 688 pixels
Display aspect ratio             : 1.860
Frame rate                       : 25.000 fps
Original frame rate              : 23.976 fps
Resolution                       : 8 bits
Colorimetry                      : 4:2:0
Scan type                        : Progressive
Bits/(Pixel*Frame)               : 0.030
Stream size                      : 422 MiB (79%)
Title                            : Monsters,Inc.[2001]BRrip.720p.x264[HinDi]-[SnowDoN-HDDR]
Writing library                  : x264 core 80 r1376M 3feaec2
Encoding settings                : cabac=1 / ref=5 / deblock=1:-2:-1 / analyse=0x3:0x113 / me=umh / subme=5 / psy=1 / psy_rd=0.0:0.0 / mixed_ref=1 / me_range=16 / chroma_me=1 / trellis=1 / 8x8dct=1 / cqm=0 / deadzone=21,11 / fast_pskip=1 / chroma_qp_offset=0 / threads=6 / sliced_threads=0 / nr=0 / decimate=1 / mbaff=0 / constrained_intra=0 / bframes=16 / b_pyramid=0 / b_adapt=1 / b_bias=0 / direct=3 / wpredb=1 / wpredp=2 / keyint=250 / keyint_min=25 / scenecut=40 / rc_lookahead=40 / rc=2pass / mbtree=1 / bitrate=658 / ratetol=1.0 / qcomp=0.60 / qpmin=10 / qpmax=51 / qpstep=4 / cplxblur=20.0 / qblur=0.5 / ip_ratio=1.40 / aq=2:1.00

Audio
ID                               : 2
Format                           : AC-3
Format/Info                      : Audio Coding 3
Codec ID                         : A_AC3
Duration                         : 1h 28mn
Bit rate mode                    : Constant
Bit rate                         : 160 Kbps
Channel(s)                       : 6 channels
Channel positions                : Front: L C R, Surround: L R, LFE
Sampling rate                    : 48.0 KHz
Stream size                      : 101 MiB (19%)
Title                            : Monsters,Inc.[2001]BRrip.720p.x264[HinDi]-[SnowDoN-HDDR]
Language                         : Hindi

 
http://img718.imageshack.us/img718/3323/monstersinc5b20015dbrri.jpg
 
http://img222.imageshack.us/img222/3323/monstersinc5b20015dbrri.jpg
 
http://img141.imageshack.us/img141/3323/monstersinc5b20015dbrri.jpg
 
http://img692.imageshack.us/img692/3323/monstersinc5b20015dbrri.jpg

